# xmcd
#
# Track frame offsets:
#	150
#	33137
#	44945
#	64282
#	86860
#	100922
#	122542
#	135110
#	148810
#	177334
#	189985
#	203912
#	219080
#	242507
#	273042
#	293473
#	314399
#	338212
#
# Disc length: 4718
#
# Revision: 2
# Processed by: cddbd v1.5.1PL0 Copyright (c) Steve Scherf et al.
# Submitted via: EasyCDDAExtractor 6.2.0.3
# Normalized: r1:DSETVAR1
#
DISCID=04126c12
DTITLE=Various Artist - Blues Way Vol. 2
DYEAR=1900
DGENRE=Blues
TTITLE0=Albert King - I'll Play The Blues For You
TTITLE1=Etta James - I'd Rather Go Blind
TTITLE2=Ry Cooder - Feelin' Bad Blues
TTITLE3=John Campbell - Wild Streak
TTITLE4=Gary Moore - I'd Loved Another Woman
TTITLE5=John Lee Hooker - Chil Out (Things Gonna Change)
TTITLE6=Aretha Franklin - Today I Sing The Blues
TTITLE7=Pete Haycock - Haunting
TTITLE8=Billy Boy Arnold and Tony McPhee - Blue And Lonesome
TTITLE9=J.J.Cale - Lou-Easy-Ann
TTITLE10=T-bone Walker - That Evening Train
TTITLE11=Isaac Scott - Help
TTITLE12=Magic Slim - Born In Missouri
TTITLE13=Jan Akkerman - Shame On You
TTITLE14=Bill Wyman - Tobacco Road
TTITLE15=Carey Bell - Hard Working Woman
TTITLE16=Junior Wells - Use Me
TTITLE17=B.B.King - Blues Boys Tune
EXTD=ID3G: 0\n
EXTT0=
EXTT1=
EXTT2=
EXTT3=
EXTT4=
EXTT5=
EXTT6=
EXTT7=
EXTT8=
EXTT9=
EXTT10=
EXTT11=
EXTT12=
EXTT13=
EXTT14=
EXTT15=
EXTT16=
EXTT17=
PLAYORDER=
